<svg width="134" height="54" viewBox="0 0 134 54" fill="none" xmlns="http://www.w3.org/2000/svg">
<g clip-path="url(#clip0_133_670)">
<path d="M68.2684 35.5801H62.069L61.2133 38.4901H55.6294L62.2791 20.8201H68.2383L74.888 38.4901H69.169L68.2834 35.5801H68.2684ZM67.1275 31.7551L65.1762 25.4101L63.2398 31.7551H67.1275Z" fill="#1174BA"/>
<path d="M74.0325 20.835H79.2261L81.0875 30.72L83.8194 20.835H88.9831L91.73 30.705L93.6063 20.835H98.77L94.8672 38.505H89.5084L86.4012 27.39L83.309 38.505H77.9502L74.0175 20.835H74.0325Z" fill="#1174BA"/>
<path d="M100.661 20.8351H113.18V24.6001H106.14V27.4051H112.054V31.0051H106.14V34.4851H113.18V38.4901H100.661V20.8201V20.8351Z" fill="#1174BA"/>
<path d="M114.831 20.835H120.535L124.513 33.555L128.446 20.835H133.985L127.425 38.505H121.511L114.831 20.835Z" fill="#1174BA"/>
<path d="M0 41.7901L7.25014 54.0001L13.1944 43.7251L5.86916 31.6951L0 41.7901Z" fill="#00A44B"/>
<path d="M42.7654 31.6951L35.4402 43.7251L41.3694 54.0001L48.6195 41.7901L42.7654 31.6951Z" fill="#00A44B"/>
<path d="M24.3173 0L10.2373 24.21L17.5175 36.195L24.3173 24.435L31.1021 36.195L38.3973 24.21L24.3173 0Z" fill="#00A44B"/>
<path d="M17.0521 49.92L24.3173 37.71L31.2522 49.92H17.0521Z" fill="#1174BA"/>
</g>
<defs>
<clipPath id="clip0_133_670">
<rect width="134" height="54" fill="white"/>
</clipPath>
</defs>
</svg>
